# xmcd
#
# Track frame offsets: 
#        175
#        16545
#        37102
#        51582
#        74832
#        93865
#        119732
#        144665
#        167217
#        194220
#        215737
#        237830
#        268262
#        304675
#
# Disc length: 4512 seconds
#
# Revision: 3
# Processed by: cddbd v1.5.2PL0 Copyright (c) Steve Scherf et al.
# Submitted via: ExactAudioCopyFreeDBPlugin 1.0
#
DISCID=e2119e0e
DTITLE=The Long Ryders - Metallic B.O.
DYEAR=1989
DGENRE=Country
TTITLE0=You're Gonna Miss Me
TTITLE1=Route 66
TTITLE2=Brand New Heartache
TTITLE3=Prisoners of Rock N' Roll
TTITLE4=Dirty Old Town
TTITLE5=Billy Jean
TTITLE6=Circle 'round the Sun
TTITLE7=Six Days on the Road
TTITLE8=Anarchy in the U. K.
TTITLE9=Masters of War
TTITLE10=Sandwich Man
TTITLE11=Blues Theme
TTITLE12=P. I. L. Theme
TTITLE13=I Shall Be Released
EXTD=1988, Prima, SID001
EXTT0=
EXTT1=
EXTT2=
EXTT3=
EXTT4=
EXTT5=
EXTT6=
EXTT7=
EXTT8=
EXTT9=
EXTT10=
EXTT11=
EXTT12=
EXTT13=
PLAYORDER=
